<?xml version="1.0" encoding="iso-8859-1"?>
<!-- Generator: Adobe Illustrator 19.0.0, SVG Export Plug-In . SVG Version: 6.00 Build 0)  -->
<svg version="1.1" id="Capa_1" xmlns="http://www.w3.org/2000/svg" xmlns:xlink="http://www.w3.org/1999/xlink" x="0px" y="0px"
	 viewBox="0 0 486.801 486.801" style="enable-background:new 0 0 486.801 486.801;" xml:space="preserve">
<g>
	<g>
		<path fill="#FFF" d="M486.801,470V318.7V17c0-9.3-7.6-16.9-16.9-16.9h-64.3c-6.8,0-12.3,5.5-12.3,12.3s5.5,12.2,12.3,12.2h56.7v294.1v143.7
			h-296.5h-141.3V318.7V24.6h57.2c6.8,0,12.3-5.5,12.3-12.2s-5.5-12.3-12.3-12.3h-64.8c-9.3,0-16.9,7.6-16.9,16.9v301.7v151.2
			c0,9.3,7.6,16.9,16.9,16.9h148.8h304.1C479.201,486.9,486.801,479.3,486.801,470z"/>
		<path fill="#FFF" d="M163.201,392.9c5.8,0,11.3-2.2,15.7-6.1l63.6-57.4l63.6,57.4c4.3,3.9,9.9,6.1,15.7,6.1c13,0,23.6-10.6,23.6-23.6v-357
			c0-6.8-5.5-12.3-12.3-12.3h-181.3c-6.8,0-12.3,5.5-12.3,12.3v357C139.601,382.4,150.101,392.9,163.201,392.9z M164.101,24.6H321
			v342.6l-62.7-56.5c-8.7-7.8-22.9-7.8-31.5,0l-62.7,56.5L164.101,24.6L164.101,24.6z"/>
	</g>
</g>
<g>
</g>
<g>
</g>
<g>
</g>
<g>
</g>
<g>
</g>
<g>
</g>
<g>
</g>
<g>
</g>
<g>
</g>
<g>
</g>
<g>
</g>
<g>
</g>
<g>
</g>
<g>
</g>
<g>
</g>
</svg>
