<?xml version="1.0" encoding="iso-8859-1"?>
<!-- Generator: Adobe Illustrator 19.0.0, SVG Export Plug-In . SVG Version: 6.00 Build 0)  -->
<svg version="1.1" id="Capa_1" xmlns="http://www.w3.org/2000/svg" xmlns:xlink="http://www.w3.org/1999/xlink" x="0px" y="0px"
	 viewBox="0 0 490.363 490.363" style="enable-background:new 0 0 490.363 490.363;" xml:space="preserve">
<g>
	<path fill="#747474"
		d="M490.363,245.151c0-17-9.7-31.6-25.4-38.1l-407.7-170c-16-6.7-34.1-2.8-46,9.8s-14.6,30.9-7,46.5l65,132.5
		c1.9,3.9,5.7,6.5,10,6.8l230.7,18.9c6.8,0.6,12.7-4.5,13.2-11.2c0.6-6.7-4.5-12.7-11.2-13.2l-223.8-18.4l-61.9-126.2
		c-4.8-9.7,1-16.9,2.8-18.9c1.9-2,8.7-8.2,18.7-4l407.7,170c9.6,4,10.3,12.9,10.3,15.5s-0.7,11.5-10.3,15.5l-407.7,170
		c-10,4.2-16.8-2-18.7-4s-7.6-9.2-2.8-18.9l65-132.5c3-6.1,0.5-13.4-5.6-16.4c-6.1-3-13.4-0.5-16.4,5.6l-65,132.5
		c-7.6,15.6-4.9,33.8,7,46.5c8,8.5,18.8,13.1,29.9,13.1c5.4,0,10.8-1.1,16-3.2l407.7-170
		C480.663,276.751,490.363,262.151,490.363,245.151z"/>
</g>
<g>
</g>
<g>
</g>
<g>
</g>
<g>
</g>
<g>
</g>
<g>
</g>
<g>
</g>
<g>
</g>
<g>
</g>
<g>
</g>
<g>
</g>
<g>
</g>
<g>
</g>
<g>
</g>
<g>
</g>
</svg>
